<?xml version="1.0" encoding="utf-8"?>
<!-- Generator: Adobe Illustrator 25.0.0, SVG Export Plug-In . SVG Version: 6.00 Build 0)  -->
<svg version="1.1" id="Layer_1" xmlns="http://www.w3.org/2000/svg" xmlns:xlink="http://www.w3.org/1999/xlink" x="0px" y="0px"
	 viewBox="0 0 360.79 403.73" style="enable-background:new 0 0 360.79 403.73;" xml:space="preserve">
<style type="text/css">
	.st0{fill:#22C55E;}
	.st1{fill:#FFFFFF;}
	.st2{font-family:'Poppins-Bold';}
	.st3{font-size:75px;}
</style>
<path class="st0" d="M218.02,13.32c1.93,1.03,3.62,2.32,5.12,3.95c25.13,27.28,50.26,54.56,75.5,81.75
	c2.57,2.77,3.75,5.67,3.74,9.37c-0.04,40.1-0.05,80.21,0.02,120.31c0,2.78-0.71,3.37-3.08,1.93c-0.96-0.58-1.96-1.24-3.02-1.45
	c-6.43-1.26-7.22-5.4-7.16-11.28c0.31-31.36,0.14-62.72,0.14-94.07c0-5.4,0-5.38-5.59-5.41c-13.23-0.05-26.48,0.34-39.66-1.35
	c-23.07-2.95-32.74-14.69-36.47-36.95c-2.74-16.35-1.94-32.88-1.91-49.35c0.01-3.46-0.61-4.62-4.41-4.6
	c-45.6,0.15-91.2,0.09-136.81,0.1c-15.79,0.01-26.74,7.9-31.01,22.42c-0.95,3.24-1.13,6.62-1.13,9.99
	c0,63.97,0.03,127.93-0.09,191.9c-0.01,3.63,1.17,4.18,4.4,4.17c47.48-0.1,94.95-0.07,142.43-0.07c1.33,0,2.65,0,4.35,0
	c-2.88,4.13-5.57,7.82-8.05,11.64c-1.15,1.78-2.74,1.43-4.3,1.43c-16.74,0.02-33.48,0.01-50.22,0.01c-28.11,0-56.22,0.07-84.33-0.09
	c-3.58-0.02-4.27,1.1-4.24,4.4c0.15,20.36,0.04,40.73,0.08,61.09c0.03,15.24,8.09,26.34,22.12,30.52c3.24,0.97,6.61,1.19,10,1.18
	c35.23-0.01,70.46,0.03,105.7-0.07c2.71-0.01,4.29,0.78,5.63,3.12c1.85,3.21,4.13,6.18,6.24,9.28c-0.76,1.06-1.85,0.55-2.73,0.55
	c-38.73,0.03-77.46,0.09-116.19,0c-25.38-0.06-43.72-18.66-43.72-44.11c0-91.58,0-183.16,0-274.73c0-24.18,12.74-39.97,36.32-45.05
	c0.17-0.04,0.28-0.36,0.42-0.55C110.06,13.32,164.04,13.32,218.02,13.32z M286.97,105.53c-23.03-24.94-45.37-49.12-68.21-73.85
	c0,9.41,0.02,17.89-0.01,26.37c-0.03,8.13,0.61,16.19,2.32,24.15c2.6,12.1,9.68,19.69,22.13,21.66
	C257.4,106.13,271.72,105.39,286.97,105.53z"/>
<path class="st0" d="M121.86,323.64c-11.97,0-23.94,0-35.91,0c-3.58,0-6.82-0.74-8.05-4.62c-1.58-5.01,1.64-8.83,7.4-8.84
	c20.45-0.03,40.9-0.01,61.35-0.01c3.99,0,7.99,0.11,11.97-0.04c2-0.08,2.57,0.58,2.45,2.52c-0.17,2.73-0.23,5.5,0.02,8.22
	c0.23,2.47-0.76,2.84-2.94,2.82C146.05,323.59,133.95,323.64,121.86,323.64z"/>
<circle class="st0" cx="256.94" cy="316.86" r="80.31"/>
<g>
	<g>
		<path class="st1" d="M259.81,318.81h-16.3l-0.09-8.04h14.24c2.4,0,4.45-0.36,6.13-1.08c1.68-0.72,2.97-1.76,3.85-3.12
			c0.88-1.36,1.32-3.01,1.32-4.94c0-2.14-0.41-3.88-1.23-5.23s-2.07-2.33-3.76-2.94s-3.83-0.92-6.44-0.92h-10.68v55.2h-11.03v-63.98
			h21.71c3.52,0,6.66,0.34,9.43,1.01c2.77,0.67,5.13,1.72,7.08,3.14c1.95,1.42,3.43,3.22,4.44,5.38c1.01,2.17,1.52,4.75,1.52,7.73
			c0,2.64-0.63,5.05-1.89,7.23s-3.12,3.96-5.58,5.34s-5.52,2.2-9.18,2.46L259.81,318.81z M259.33,347.73h-19.29l4.97-8.75h14.33
			c2.49,0,4.57-0.42,6.24-1.25c1.67-0.83,2.92-1.99,3.76-3.47c0.84-1.48,1.25-3.22,1.25-5.21c0-2.08-0.37-3.89-1.1-5.43
			c-0.73-1.54-1.89-2.72-3.47-3.56c-1.58-0.83-3.65-1.25-6.2-1.25h-12.39l0.09-8.04h16.13l2.5,3.03c3.52,0.12,6.41,0.89,8.68,2.33
			c2.27,1.44,3.96,3.3,5.08,5.58s1.67,4.75,1.67,7.38c0,4.07-0.89,7.49-2.66,10.24s-4.31,4.84-7.62,6.26
			S263.99,347.73,259.33,347.73z"/>
	</g>
</g>
<text transform="matrix(1 0 0 1 60.8358 200.8626)" class="st0 st2 st3">Form</text>
</svg>
