<?xml version="1.0" encoding="utf-8"?>
<!-- Generator: Adobe Illustrator 25.0.0, SVG Export Plug-In . SVG Version: 6.00 Build 0)  -->
<svg version="1.1" xmlns="http://www.w3.org/2000/svg" xmlns:xlink="http://www.w3.org/1999/xlink" x="0px" y="0px"
	 viewBox="0 0 360.79 403.73" style="enable-background:new 0 0 360.79 403.73;" xml:space="preserve">
<style type="text/css">
	.st0{fill:#22C55E;}
	.st1{fill:none;stroke:#FFFFFF;stroke-width:6;stroke-linecap:round;stroke-linejoin:round;stroke-miterlimit:133.3333;}
	.st2{display:none;}
	.st3{display:inline;}
	.st4{fill:#3B82F6;}
	.st5{font-family:'Poppins-Bold';}
	.st6{font-size:60px;}
	.st7{display:inline;fill:#3B82F6;}
	.st8{font-family:'Poppins-Regular';}
</style>
<g id="Layer_1">
	<path class="st0" d="M218.02,13.32c1.93,1.03,3.62,2.32,5.12,3.95c25.13,27.28,50.26,54.56,75.5,81.75
		c2.57,2.77,3.75,5.67,3.74,9.37c-0.04,40.1-0.05,80.21,0.02,120.31c0,2.78-0.71,3.37-3.08,1.93c-0.96-0.58-1.96-1.24-3.02-1.45
		c-6.43-1.26-7.22-5.4-7.16-11.28c0.31-31.36,0.14-62.72,0.14-94.07c0-5.4,0-5.38-5.59-5.41c-13.23-0.05-26.48,0.34-39.66-1.35
		c-23.07-2.95-32.74-14.69-36.47-36.95c-2.74-16.35-1.94-32.88-1.91-49.35c0.01-3.46-0.61-4.62-4.41-4.6
		c-45.6,0.15-91.2,0.09-136.81,0.1c-15.79,0.01-26.74,7.9-31.01,22.42c-0.95,3.24-1.13,6.62-1.13,9.99
		c0,63.97,0.03,127.93-0.09,191.9c-0.01,3.63,1.17,4.18,4.4,4.17c47.48-0.1,94.95-0.07,142.43-0.07c1.33,0,2.65,0,4.35,0
		c-2.88,4.13-5.57,7.82-8.05,11.64c-1.15,1.78-2.74,1.43-4.3,1.43c-16.74,0.02-33.48,0.01-50.22,0.01
		c-28.11,0-56.22,0.07-84.33-0.09c-3.58-0.02-4.27,1.1-4.24,4.4c0.15,20.36,0.04,40.73,0.08,61.09
		c0.03,15.24,8.09,26.34,22.12,30.52c3.24,0.97,6.61,1.19,10,1.18c35.23-0.01,70.46,0.03,105.7-0.07c2.71-0.01,4.29,0.78,5.63,3.12
		c1.85,3.21,4.13,6.18,6.24,9.28c-0.76,1.06-1.85,0.55-2.73,0.55c-38.73,0.03-77.46,0.09-116.19,0
		c-25.38-0.06-43.72-18.66-43.72-44.11c0-91.58,0-183.16,0-274.73c0-24.18,12.74-39.97,36.32-45.05c0.17-0.04,0.28-0.36,0.42-0.55
		C110.06,13.32,164.04,13.32,218.02,13.32z M286.97,105.53c-23.03-24.94-45.37-49.12-68.21-73.85c0,9.41,0.02,17.89-0.01,26.37
		c-0.03,8.13,0.61,16.19,2.32,24.15c2.6,12.1,9.68,19.69,22.13,21.66C257.4,106.13,271.72,105.39,286.97,105.53z"/>
	<path class="st0" d="M121.86,323.64c-11.97,0-23.94,0-35.91,0c-3.58,0-6.82-0.74-8.05-4.62c-1.58-5.01,1.64-8.83,7.4-8.84
		c20.45-0.03,40.9-0.01,61.35-0.01c3.99,0,7.99,0.11,11.97-0.04c2-0.08,2.57,0.58,2.45,2.52c-0.17,2.73-0.23,5.5,0.02,8.22
		c0.23,2.47-0.76,2.84-2.94,2.82C146.05,323.59,133.95,323.64,121.86,323.64z"/>
	<circle class="st0" cx="256.94" cy="316.86" r="80.31"/>
	<g>
		<g>
			<path class="st0" d="M84.87,109.64v4.44H66.69v14.1h14.76v4.44H66.69v18.84h-5.46v-41.82H84.87z"/>
			<path class="st0" d="M97.44,149.9c-2.5-1.4-4.46-3.39-5.88-5.97c-1.42-2.58-2.13-5.57-2.13-8.97c0-3.36,0.73-6.33,2.19-8.91
				c1.46-2.58,3.45-4.56,5.97-5.94c2.52-1.38,5.34-2.07,8.46-2.07c3.12,0,5.94,0.69,8.46,2.07s4.51,3.35,5.97,5.91
				c1.46,2.56,2.19,5.54,2.19,8.94c0,3.4-0.75,6.39-2.25,8.97c-1.5,2.58-3.53,4.57-6.09,5.97c-2.56,1.4-5.4,2.1-8.52,2.1
				C102.73,152,99.94,151.3,97.44,149.9z M111.33,145.82c1.72-0.92,3.11-2.3,4.17-4.14c1.06-1.84,1.59-4.08,1.59-6.72
				s-0.52-4.88-1.56-6.72c-1.04-1.84-2.4-3.21-4.08-4.11c-1.68-0.9-3.5-1.35-5.46-1.35c-2,0-3.83,0.45-5.49,1.35
				c-1.66,0.9-2.99,2.27-3.99,4.11c-1,1.84-1.5,4.08-1.5,6.72c0,2.68,0.49,4.94,1.47,6.78c0.98,1.84,2.29,3.21,3.93,4.11
				c1.64,0.9,3.44,1.35,5.4,1.35C107.77,147.2,109.61,146.74,111.33,145.82z"/>
			<path class="st0" d="M139.44,119.54c1.78-1.04,3.95-1.56,6.51-1.56v5.64h-1.44c-6.12,0-9.18,3.32-9.18,9.96v17.88h-5.46v-32.88
				h5.46v5.34C136.29,122.04,137.66,120.58,139.44,119.54z"/>
			<path class="st0" d="M198.63,119.57c2,1.06,3.58,2.65,4.74,4.77c1.16,2.12,1.74,4.7,1.74,7.74v19.38h-5.4v-18.6
				c0-3.28-0.81-5.79-2.43-7.53c-1.62-1.74-3.81-2.61-6.57-2.61c-2.84,0-5.1,0.91-6.78,2.73c-1.68,1.82-2.52,4.45-2.52,7.89v18.12
				h-5.4v-18.6c0-3.28-0.81-5.79-2.43-7.53c-1.62-1.74-3.81-2.61-6.57-2.61c-2.84,0-5.1,0.91-6.78,2.73
				c-1.68,1.82-2.52,4.45-2.52,7.89v18.12h-5.46v-32.88h5.46v4.74c1.08-1.72,2.53-3.04,4.35-3.96c1.82-0.92,3.83-1.38,6.03-1.38
				c2.76,0,5.2,0.62,7.32,1.86c2.12,1.24,3.7,3.06,4.74,5.46c0.92-2.32,2.44-4.12,4.56-5.4c2.12-1.28,4.48-1.92,7.08-1.92
				C194.35,117.98,196.63,118.51,198.63,119.57z"/>
		</g>
	</g>
	<path id="Vector" class="st1" d="M248.85,289.79h-7.51c-4.67,0-7.01,0-8.79,0.91c-1.57,0.8-2.85,2.08-3.64,3.64
		c-0.91,1.78-0.91,4.12-0.91,8.79v31.7c0,4.67,0,7.01,0.91,8.79c0.8,1.57,2.08,2.85,3.64,3.65c1.78,0.91,4.12,0.91,8.78,0.91h31.73
		c4.66,0,6.99,0,8.78-0.91c1.57-0.8,2.85-2.08,3.65-3.65c0.91-1.78,0.91-4.12,0.91-8.78v-7.52 M290.57,306.48v-20.86 M290.57,285.62
		h-20.86 M290.57,285.62l-29.2,29.2"/>
	<g>
		<g>
			<path class="st0" d="M91.09,194.63c-1.12,2.02-2.84,3.65-5.16,4.89c-2.32,1.24-5.2,1.86-8.64,1.86h-6.36v15.12H60.67v-42.12
				h16.62c3.36,0,6.2,0.58,8.52,1.74c2.32,1.16,4.06,2.76,5.22,4.8c1.16,2.04,1.74,4.38,1.74,7.02
				C92.77,190.38,92.21,192.61,91.09,194.63z M80.89,191.84c0.96-0.92,1.44-2.22,1.44-3.9c0-1.68-0.48-2.98-1.44-3.9
				c-0.96-0.92-2.42-1.38-4.38-1.38h-5.58v10.56h5.58C78.47,193.22,79.93,192.76,80.89,191.84z"/>
			<path class="st0" d="M108.37,174.38v42.12H98.11v-42.12H108.37z"/>
			<path class="st0" d="M146.23,194.63c-1.12,2.02-2.84,3.65-5.16,4.89c-2.32,1.24-5.2,1.86-8.64,1.86h-6.36v15.12h-10.26v-42.12
				h16.62c3.36,0,6.2,0.58,8.52,1.74c2.32,1.16,4.06,2.76,5.22,4.8c1.16,2.04,1.74,4.38,1.74,7.02
				C147.91,190.38,147.35,192.61,146.23,194.63z M136.03,191.84c0.96-0.92,1.44-2.22,1.44-3.9c0-1.68-0.48-2.98-1.44-3.9
				c-0.96-0.92-2.42-1.38-4.38-1.38h-5.58v10.56h5.58C133.61,193.22,135.07,192.76,136.03,191.84z"/>
		</g>
	</g>
</g>
<g id="Layer_2" class="st2">
	<g class="st3">
		<text transform="matrix(1 0 0 1 56.953 216.4961)" class="st4 st5 st6">MPRF</text>
	</g>
	<text transform="matrix(1 0 0 1 56.6105 151.456)" class="st7 st8 st6">Form</text>
</g>
</svg>
